<?xml version="1.0" encoding="iso-8859-1"?>
<!-- Generator: Adobe Illustrator 19.0.0, SVG Export Plug-In . SVG Version: 6.00 Build 0)  -->
<svg version="1.1" id="Capa_1" xmlns="http://www.w3.org/2000/svg" xmlns:xlink="http://www.w3.org/1999/xlink" x="0px" y="0px"
	viewBox="0 0 502.664 502.664" style="enable-background:new 0 0 502.664 502.664;" xml:space="preserve">
	<symbol id="email">
		<path d="M8 6C6.93913 6 5.92172 6.42143 5.17157 7.17157C4.42143 7.92172 4 8.93913 4 10V10.402L16 16.864L28 10.404V10C28 8.93913 27.5786 7.92172 26.8284 7.17157C26.0783 6.42143 25.0609 6 24 6H8ZM28 12.674L16.474 18.88C16.3283 18.9584 16.1655 18.9995 16 18.9995C15.8345 18.9995 15.6717 18.9584 15.526 18.88L4 12.674V22C4 23.0609 4.42143 24.0783 5.17157 24.8284C5.92172 25.5786 6.93913 26 8 26H24C25.0609 26 26.0783 25.5786 26.8284 24.8284C27.5786 24.0783 28 23.0609 28 22V12.674Z" fill="#FFB90E"/>
	</symbol>
	<symbol id="instagram">
		<path d="M52.3672 20.7624C52.342 18.869 51.9875 16.9943 51.3197 15.2224C50.7406 13.7278 49.856 12.3704 48.7226 11.237C47.5892 10.1035 46.2318 9.21902 44.7372 8.63989C42.988 7.98329 41.1401 7.62825 39.2722 7.58989C36.8672 7.48239 36.1047 7.45239 29.9997 7.45239C23.8947 7.45239 23.1122 7.45239 20.7247 7.58989C18.8576 7.62853 17.0106 7.98356 15.2622 8.63989C13.7673 9.21862 12.4097 10.103 11.2763 11.2365C10.1428 12.3699 9.25841 13.7275 8.67969 15.2224C8.02176 16.9702 7.6675 18.8177 7.63219 20.6849C7.52469 23.0924 7.49219 23.8549 7.49219 29.9599C7.49219 36.0649 7.49219 36.8449 7.63219 39.2349C7.66969 41.1049 8.02219 42.9499 8.67969 44.7024C9.25938 46.1968 10.1444 47.5538 11.2783 48.6868C12.4121 49.8198 13.7698 50.7038 15.2647 51.2824C17.0083 51.9654 18.8556 52.3458 20.7272 52.4074C23.1347 52.5149 23.8972 52.5474 30.0022 52.5474C36.1072 52.5474 36.8897 52.5474 39.2772 52.4074C41.1451 52.3706 42.9931 52.0164 44.7422 51.3599C46.2364 50.7801 47.5935 49.8953 48.7268 48.762C49.8601 47.6287 50.7449 46.2716 51.3247 44.7774C51.9822 43.0274 52.3347 41.1824 52.3722 39.3099C52.4797 36.9049 52.5122 36.1424 52.5122 30.0349C52.5072 23.9299 52.5072 23.1549 52.3672 20.7624ZM29.9847 41.5049C23.5997 41.5049 18.4272 36.3324 18.4272 29.9474C18.4272 23.5624 23.5997 18.3899 29.9847 18.3899C33.0499 18.3899 35.9896 19.6076 38.1571 21.775C40.3245 23.9425 41.5422 26.8822 41.5422 29.9474C41.5422 33.0126 40.3245 35.9523 38.1571 38.1198C35.9896 40.2872 33.0499 41.5049 29.9847 41.5049ZM42.0022 20.6574C41.6482 20.6577 41.2976 20.5882 40.9705 20.4529C40.6433 20.3176 40.3461 20.1191 40.0958 19.8688C39.8455 19.6185 39.647 19.3212 39.5117 18.9941C39.3763 18.667 39.3069 18.3164 39.3072 17.9624C39.3072 17.6086 39.3769 17.2584 39.5122 16.9315C39.6476 16.6047 39.846 16.3078 40.0962 16.0576C40.3463 15.8075 40.6433 15.6091 40.9701 15.4737C41.2969 15.3383 41.6472 15.2686 42.0009 15.2686C42.3547 15.2686 42.705 15.3383 43.0318 15.4737C43.3586 15.6091 43.6556 15.8075 43.9057 16.0576C44.1558 16.3078 44.3543 16.6047 44.4896 16.9315C44.625 17.2584 44.6947 17.6086 44.6947 17.9624C44.6947 19.4524 43.4897 20.6574 42.0022 20.6574Z" fill="currentColor"/>
		<path d="M29.9841 37.4549C34.1303 37.4549 37.4916 34.0937 37.4916 29.9474C37.4916 25.8012 34.1303 22.4399 29.9841 22.4399C25.8378 22.4399 22.4766 25.8012 22.4766 29.9474C22.4766 34.0937 25.8378 37.4549 29.9841 37.4549Z" fill="currentColor"/>
	</symbol>
	<symbol id="star">
		<path d="M15.9633 6.20682L11.5002 5.55819L9.50509 1.51346C9.4506 1.40272 9.36095 1.31307 9.25021 1.25858C8.97248 1.12147 8.63497 1.23572 8.49611 1.51346L6.50099 5.55819L2.0379 6.20682C1.91486 6.2244 1.80236 6.2824 1.71622 6.37029C1.61209 6.47732 1.55471 6.62131 1.55669 6.77062C1.55867 6.91993 1.61984 7.06235 1.72677 7.16658L4.95587 10.3148L4.19298 14.7603C4.17509 14.8637 4.18653 14.9701 4.22601 15.0673C4.26549 15.1646 4.33143 15.2488 4.41634 15.3105C4.50126 15.3722 4.60176 15.4088 4.70644 15.4163C4.81112 15.4237 4.9158 15.4017 5.00861 15.3527L9.0006 13.2539L12.9926 15.3527C13.1016 15.4107 13.2281 15.4301 13.3494 15.409C13.6553 15.3562 13.861 15.0662 13.8082 14.7603L13.0453 10.3148L16.2744 7.16658C16.3623 7.08045 16.4203 6.96795 16.4379 6.8449C16.4854 6.53729 16.2709 6.25252 15.9633 6.20682Z" fill="white"/>
	</symbol>
	<symbol id="star-empty">
		<path fill-rule="evenodd" clip-rule="evenodd" d="M8.5 2C8.79275 2 9.064 2.15358 9.21459 2.40458L11.5249 6.25514L15.3301 7.01617C15.6315 7.07642 15.8752 7.29767 15.9643 7.59183C16.0533 7.886 15.9733 8.20525 15.7559 8.42258L12.738 11.4406L13.4838 15.1699C13.5463 15.482 13.4254 15.8024 13.1725 15.9956C12.9196 16.1887 12.5787 16.221 12.294 16.0787L8.5 14.1817L4.70604 16.0787C4.42136 16.221 4.08047 16.1887 3.82753 15.9956C3.57459 15.8024 3.45379 15.482 3.5162 15.1699L4.26208 11.4406L1.2441 8.42258C1.02679 8.20525 0.946719 7.886 1.03578 7.59183C1.12484 7.29767 1.36857 7.07642 1.66993 7.01617L5.47511 6.25514L7.78542 2.40458C7.93609 2.15358 8.20734 2 8.5 2ZM8.5 4.45304L6.7146 7.42875C6.5938 7.63008 6.39368 7.77108 6.16345 7.81717L3.52364 8.34508L5.75594 10.5774C5.95297 10.7744 6.03849 11.0569 5.98384 11.3301L5.48466 13.826L8.12734 12.5047C8.36192 12.3873 8.63809 12.3873 8.87267 12.5047L11.5154 13.826L11.0162 11.3301C10.9616 11.0569 11.0471 10.7744 11.2441 10.5774L13.4764 8.34508L10.8366 7.81717C10.6063 7.77108 10.4063 7.63008 10.2854 7.42875L8.5 4.45304Z" fill="white"/>
	</symbol>
	<symbol id="arrow-right">
		<path d="M1.92969 8L16.0725 8" stroke="#FFA520" stroke-width="1.2" stroke-linecap="round" stroke-linejoin="round"/>
		<path d="M11.5703 3.33337L16.0703 8.00004L11.5703 12.6667" stroke="#FFA520" stroke-width="1.2" stroke-linecap="round" stroke-linejoin="round"/>
	</symbol>
	<symbol id="armchair">
		<path d="M35.102 18.3699C31.5012 18.3699 28.5714 21.2901 28.5714 24.8791V26.0678C27.1257 25.5528 24.329 24.8791 19.5918 24.8791C14.8547 24.8791 12.0588 25.5528 10.6122 26.0678V24.8791C10.6122 21.2901 7.68245 18.3699 4.08163 18.3699C1.83102 18.3699 0 20.1949 0 22.4381C0 24.0858 0.986123 25.5609 2.51347 26.1948C2.97061 26.386 3.26531 26.8278 3.26531 27.3201L4.08163 30.5747C4.08163 33.4957 6.30122 35.9082 9.14775 36.2312C8.47755 36.5501 8.01061 37.2271 8.01061 38.0163C8.01061 39.1115 8.90204 40 10.0008 40C11.0996 40 11.991 39.1115 11.991 38.0163C11.991 37.2564 11.5567 36.6038 10.9265 36.2702H28.2596C27.6294 36.603 27.1951 37.2556 27.1951 38.0163C27.1951 39.1115 28.0865 40 29.1853 40C30.2841 40 31.1755 39.1115 31.1755 38.0163C31.1755 37.2271 30.7086 36.5501 30.0384 36.2312C32.8825 35.9082 35.102 33.4957 35.102 30.5747L35.9184 27.3201C35.9184 26.827 36.2131 26.386 36.6702 26.1948C38.1976 25.5618 39.1837 24.0858 39.1837 22.4381C39.1837 20.1949 37.3527 18.3699 35.102 18.3699Z" fill="#FFB90E"/>
		<path d="M12.8569 22.9767C14.5557 22.6676 16.7671 22.4381 19.5916 22.4381C22.4161 22.4381 24.6275 22.6676 26.3263 22.9767C26.9679 20.0313 29.0724 17.6278 31.8373 16.5481V12.2048C31.8373 5.46449 26.3548 0 19.5916 0C12.8291 0 7.34668 5.46449 7.34668 12.2048V16.5489C10.1116 17.6286 12.2153 20.0321 12.8569 22.9767Z" fill="#FFB90E"/>
	</symbol>
	<symbol id="tree">
	<g clip-path="url(#clip0_17_103)">
		<path d="M35.2497 22.488H31.4997V20.613C31.4997 20.5135 31.5392 20.4182 31.6095 20.3478C31.6798 20.2775 31.7752 20.238 31.8747 20.238H34.4997C34.631 20.2379 34.76 20.2034 34.8738 20.1379C34.9876 20.0723 35.0822 19.978 35.1481 19.8644C35.2141 19.7508 35.249 19.6219 35.2494 19.4905C35.2499 19.3592 35.2158 19.23 35.1507 19.116L32.7912 14.988H33.7497C33.8833 14.9878 34.0145 14.9519 34.1296 14.8841C34.2448 14.8162 34.3397 14.7188 34.4045 14.6019C34.4694 14.4851 34.5018 14.353 34.4985 14.2194C34.4952 14.0858 34.4562 13.9555 34.3857 13.842L30.6357 7.84199C30.5638 7.74016 30.4685 7.65707 30.3578 7.59973C30.2471 7.54238 30.1243 7.51245 29.9997 7.51245C29.875 7.51245 29.7522 7.54238 29.6415 7.59973C29.5308 7.65707 29.4356 7.74016 29.3637 7.84199L25.6137 13.842C25.5431 13.9555 25.5041 14.0858 25.5008 14.2194C25.4975 14.353 25.53 14.4851 25.5948 14.6019C25.6597 14.7188 25.7546 14.8162 25.8697 14.8841C25.9848 14.9519 26.116 14.9878 26.2497 14.988H27.2082L24.8472 19.116C24.782 19.2301 24.7479 19.3594 24.7484 19.4909C24.7489 19.6224 24.784 19.7514 24.8501 19.865C24.9162 19.9787 25.011 20.073 25.125 20.1384C25.239 20.2039 25.3682 20.2382 25.4997 20.238H28.1247C28.2241 20.238 28.3195 20.2775 28.3898 20.3478C28.4602 20.4182 28.4997 20.5135 28.4997 20.613V22.8375C25.3444 23.6178 22.4079 25.1053 19.9122 27.1875C19.8596 27.2294 19.8194 27.2846 19.7956 27.3474C19.7719 27.4103 19.7655 27.4783 19.7772 27.5445C19.7881 27.6109 19.8169 27.6731 19.8605 27.7244C19.9041 27.7756 19.9609 27.814 20.0247 27.8355C23.3124 28.8553 26.2607 30.7505 28.5537 33.318C28.8105 33.6285 29.0008 33.9884 29.1128 34.3754C29.2248 34.7624 29.256 35.1684 29.2047 35.568C29.1977 35.6217 29.2023 35.6764 29.2184 35.7282C29.2344 35.7799 29.2615 35.8276 29.2977 35.868C29.3327 35.9079 29.3758 35.9397 29.4242 35.9615C29.4726 35.9832 29.5251 35.9943 29.5782 35.994H35.2497C35.4486 35.994 35.6393 35.915 35.78 35.7743C35.9207 35.6337 35.9997 35.4429 35.9997 35.244V23.244C36.0005 23.145 35.9816 23.0468 35.9443 22.9551C35.907 22.8634 35.8519 22.7801 35.7821 22.7098C35.7124 22.6395 35.6295 22.5837 35.5381 22.5457C35.4467 22.5076 35.3487 22.488 35.2497 22.488Z" fill="#FFB90E"/>
		<path d="M0.333 31.614C0.230452 31.6826 0.14641 31.7754 0.0883234 31.8843C0.0302367 31.9931 -0.000100608 32.1146 2.50662e-07 32.238V35.238C2.50662e-07 35.4369 0.0790179 35.6277 0.21967 35.7683C0.360322 35.909 0.551088 35.988 0.75 35.988H26.25C26.3925 35.988 26.5321 35.9473 26.6523 35.8708C26.7725 35.7943 26.8685 35.6851 26.9289 35.5561C26.9894 35.427 27.0118 35.2834 26.9936 35.1421C26.9753 35.0007 26.9172 34.8675 26.826 34.758C23.1555 30.3525 16.359 28.8255 12 28.542V25.113C12 25.0135 12.0395 24.9182 12.1098 24.8478C12.1802 24.7775 12.2755 24.738 12.375 24.738H17.31C17.5844 24.7378 17.8534 24.6623 18.0879 24.5198C18.3223 24.3773 18.5132 24.1732 18.6397 23.9297C18.7662 23.6863 18.8236 23.4128 18.8054 23.139C18.7873 22.8652 18.6945 22.6017 18.537 22.377L14.937 17.238H15.8805C16.1492 17.2378 16.413 17.1655 16.6442 17.0285C16.8754 16.8915 17.0656 16.695 17.1948 16.4593C17.324 16.2237 17.3876 15.9577 17.3788 15.6891C17.3701 15.4205 17.2893 15.1592 17.145 14.9325L13.3275 8.9325C13.5493 8.87003 13.7537 8.75728 13.9249 8.60302C14.0961 8.44876 14.2295 8.25713 14.3146 8.043C14.3998 7.82887 14.4345 7.598 14.416 7.3683C14.3975 7.1386 14.3263 6.91625 14.208 6.7185L10.3935 0.352502C10.3219 0.247935 10.2258 0.162398 10.1137 0.103296C10.0016 0.0441935 9.87675 0.0133057 9.75 0.0133057C9.62325 0.0133057 9.49841 0.0441935 9.38629 0.103296C9.27416 0.162398 9.17813 0.247935 9.1065 0.352502L5.2875 6.717C5.1689 6.9149 5.09754 7.13748 5.07898 7.36745C5.06043 7.59741 5.09516 7.82856 5.1805 8.04291C5.26583 8.25727 5.39946 8.44905 5.571 8.60334C5.74253 8.75763 5.94734 8.87027 6.1695 8.9325L2.352 14.9325C2.2073 15.1592 2.12621 15.4207 2.11725 15.6895C2.10829 15.9583 2.17177 16.2246 2.30105 16.4605C2.43033 16.6963 2.62065 16.8931 2.85208 17.0302C3.08351 17.1672 3.34753 17.2395 3.6165 17.2395H4.56L0.96 22.3785C0.80244 22.6033 0.709579 22.867 0.691529 23.1409C0.67348 23.4148 0.730936 23.6884 0.857638 23.9319C0.98434 24.1754 1.17543 24.3794 1.4101 24.5219C1.64476 24.6643 1.91401 24.7395 2.1885 24.7395H7.125C7.22446 24.7395 7.31984 24.779 7.39017 24.8493C7.46049 24.9197 7.5 25.015 7.5 25.1145V28.7295C4.92585 29.1448 2.47712 30.1303 0.333 31.614Z" fill="#FFB90E"/>
		</g>
		<defs>
		<clipPath id="clip0_17_103">
		<rect width="36" height="36" fill="white"/>
		</clipPath>
		</defs>
	</symbol>
	<symbol id="car">
		<path d="M33.0909 13H28.1818V6H5.27273C3.46455 6 2 7.56625 2 9.5V28.75H5.27273C5.27273 31.6462 7.47364 34 10.1818 34C12.89 34 15.0909 31.6462 15.0909 28.75H24.9091C24.9091 31.6462 27.11 34 29.8182 34C32.5264 34 34.7273 31.6462 34.7273 28.75H38V20L33.0909 13ZM10.1818 31.375C8.82364 31.375 7.72727 30.2025 7.72727 28.75C7.72727 27.2975 8.82364 26.125 10.1818 26.125C11.54 26.125 12.6364 27.2975 12.6364 28.75C12.6364 30.2025 11.54 31.375 10.1818 31.375ZM32.2727 15.625L35.4882 20H28.1818V15.625H32.2727ZM29.8182 31.375C28.46 31.375 27.3636 30.2025 27.3636 28.75C27.3636 27.2975 28.46 26.125 29.8182 26.125C31.1764 26.125 32.2727 27.2975 32.2727 28.75C32.2727 30.2025 31.1764 31.375 29.8182 31.375Z" fill="#FFB90E"/>
	</symbol>
	<symbol id="map">
		<g clip-path="url(#clip0_17_192)">
		<path d="M8.00065 1.33325C5.42065 1.33325 3.33398 3.41992 3.33398 5.99992C3.33398 9.49992 8.00065 14.6666 8.00065 14.6666C8.00065 14.6666 12.6673 9.49992 12.6673 5.99992C12.6673 3.41992 10.5807 1.33325 8.00065 1.33325ZM4.66732 5.99992C4.66732 4.15992 6.16065 2.66659 8.00065 2.66659C9.84065 2.66659 11.334 4.15992 11.334 5.99992C11.334 7.91992 9.41398 10.7933 8.00065 12.5866C6.61398 10.8066 4.66732 7.89992 4.66732 5.99992Z" fill="currentColor"/>
		<path d="M8.00065 7.66658C8.92113 7.66658 9.66732 6.92039 9.66732 5.99992C9.66732 5.07944 8.92113 4.33325 8.00065 4.33325C7.08018 4.33325 6.33398 5.07944 6.33398 5.99992C6.33398 6.92039 7.08018 7.66658 8.00065 7.66658Z" fill="currentColor"/>
		</g>
		<defs>
		<clipPath id="clip0_17_192">
		<rect width="16" height="16" fill="white"/>
		</clipPath>
		</defs>
	</symbol>
	<symbol id="mail">
	<g clip-path="url(#clip0_17_198)">
		<path d="M13.334 2.66675H2.66732C1.93398 2.66675 1.34065 3.26675 1.34065 4.00008L1.33398 12.0001C1.33398 12.7334 1.93398 13.3334 2.66732 13.3334H13.334C14.0673 13.3334 14.6673 12.7334 14.6673 12.0001V4.00008C14.6673 3.26675 14.0673 2.66675 13.334 2.66675ZM13.334 12.0001H2.66732V5.33341L8.00065 8.66675L13.334 5.33341V12.0001ZM8.00065 7.33341L2.66732 4.00008H13.334L8.00065 7.33341Z" fill="currentColor"/>
		</g>
		<defs>
		<clipPath id="clip0_17_198">
		<rect width="16" height="16" fill="white"/>
		</clipPath>
		</defs>
	</symbol>
	<symbol id="tel">
		<g clip-path="url(#clip0_17_187)">
		<path d="M10 8H11.3333C11.3333 6.16 9.84 4.66667 8 4.66667V6C9.10667 6 10 6.89333 10 8ZM12.6667 8H14C14 4.68667 11.3133 2 8 2V3.33333C10.58 3.33333 12.6667 5.42 12.6667 8ZM13.3333 10.3333C12.5 10.3333 11.7 10.2 10.9533 9.95333C10.8867 9.93333 10.8133 9.92 10.7467 9.92C10.5733 9.92 10.4067 9.98667 10.2733 10.1133L8.80667 11.58C6.92 10.62 5.37333 9.08 4.41333 7.18667L5.88 5.71333C6.06667 5.54 6.12 5.28 6.04667 5.04667C5.8 4.3 5.66667 3.5 5.66667 2.66667C5.66667 2.3 5.36667 2 5 2H2.66667C2.3 2 2 2.3 2 2.66667C2 8.92667 7.07333 14 13.3333 14C13.7 14 14 13.7 14 13.3333V11C14 10.6333 13.7 10.3333 13.3333 10.3333ZM3.35333 3.33333H4.35333C4.4 3.92 4.5 4.5 4.65333 5.05333L3.85333 5.86C3.58667 5.05333 3.41333 4.21333 3.35333 3.33333ZM12.6667 12.6467C11.7867 12.5867 10.9333 12.4133 10.1333 12.14L10.9333 11.34C11.5 11.5 12.08 11.6 12.6667 11.64V12.6467Z" fill="currentColor"/>
		</g>
		<defs>
		<clipPath id="clip0_17_187">
		<rect width="16" height="16" fill="white"/>
		</clipPath>
		</defs>
	</symbol>
	<symbol id="send">
		<g clip-path="url(#clip0_17_166)">
		<path d="M22.5 1.5L9 15M1.5 12L22.5 1.5L12 22.5L9 15L1.5 12Z" stroke="currentColor" stroke-width="2" stroke-linecap="round" stroke-linejoin="round"/>
		</g>
		<defs>
		<clipPath id="clip0_17_166">
		<rect width="24" height="24" fill="white"/>
		</clipPath>
		</defs>
	</symbol>
	<symbol id="facebook">
		<path d="M14.1667 3.91671C14.1667 3.8062 14.1228 3.70022 14.0446 3.62208C13.9665 3.54394 13.8605 3.50004 13.75 3.50004H11.6667C10.6176 3.44779 9.5905 3.81287 8.80977 4.51553C8.02904 5.21818 7.55815 6.20129 7.5 7.25004V9.50004H5.41667C5.30616 9.50004 5.20018 9.54394 5.12204 9.62208C5.0439 9.70022 5 9.8062 5 9.91671V12.0834C5 12.1939 5.0439 12.2999 5.12204 12.378C5.20018 12.4561 5.30616 12.5 5.41667 12.5H7.5V18.0834C7.5 18.1939 7.5439 18.2999 7.62204 18.378C7.70018 18.4561 7.80616 18.5 7.91667 18.5H10.4167C10.5272 18.5 10.6332 18.4561 10.7113 18.378C10.7894 18.2999 10.8333 18.1939 10.8333 18.0834V12.5H13.0167C13.1093 12.5014 13.1998 12.4718 13.2737 12.4159C13.3477 12.3601 13.4009 12.2812 13.425 12.1917L14.025 10.025C14.0416 9.96348 14.0438 9.89893 14.0315 9.83637C14.0192 9.77381 13.9927 9.7149 13.9541 9.66419C13.9155 9.61347 13.8657 9.5723 13.8086 9.54384C13.7516 9.51539 13.6888 9.5004 13.625 9.50004H10.8333V7.25004C10.8541 7.04378 10.9509 6.85264 11.105 6.71396C11.2591 6.57527 11.4594 6.49901 11.6667 6.50004H13.75C13.8605 6.50004 13.9665 6.45615 14.0446 6.37801C14.1228 6.29987 14.1667 6.19388 14.1667 6.08338V3.91671Z" fill="currentColor"/>
	</symbol>
	<symbol id="twitter">
		<path d="M18.8168 9.06407C18.2888 9.30407 17.7608 9.44807 17.1368 9.54407C17.7128 9.16007 18.1928 8.63207 18.4328 7.96007C17.8568 8.29607 17.2328 8.53607 16.6088 8.68007C16.0808 8.10407 15.3128 7.76807 14.4968 7.76807C12.9128 7.76807 11.5688 9.06407 11.5688 10.6961C11.5688 10.9361 11.6168 11.1281 11.6648 11.3681C9.26478 11.2721 7.10478 10.0721 5.66478 8.34407C5.42478 8.68007 5.28078 9.16007 5.28078 9.68807C5.28078 10.6961 5.80878 11.6081 6.57678 12.0881C6.09678 12.0881 5.66478 11.9441 5.28078 11.7041V11.7521C5.28078 13.1441 6.28878 14.3441 7.63278 14.5841C7.39278 14.6321 7.15278 14.6801 6.86478 14.6801C6.67278 14.6801 6.48078 14.6801 6.33678 14.6321C6.72078 15.7841 7.77678 16.6481 9.07278 16.6481C8.06478 17.4161 6.81678 17.8961 5.47278 17.8961C5.23278 17.8961 4.99278 17.8961 4.80078 17.8481C5.95278 18.7601 7.48878 19.2401 9.12078 19.2401C14.4488 19.2401 17.3768 14.8241 17.3768 10.9841V10.6001C17.9528 10.1681 18.4328 9.68807 18.8168 9.06407Z" fill="currentColor"/>
	</symbol>
	<symbol id="pinterest">
		<path d="M10.2 3C5.8 3 3.5 5.8 3.5 8.9C3.5 10.4 4.3 11.9 5.6 12.7C6 12.9 5.9 12.7 6.2 11.5C6.2 11.4 6.2 11.3 6.1 11.2C4.3 9 5.8 4.7 10 4.7C16.1 4.7 14.9 13.1 11.1 13.1C10.3 13.2 9.6 12.6 9.6 11.8V11.4C10 10.3 10.3 9.3 10.4 8.2C10.4 6.1 7.3 6.4 7.3 9.2C7.3 9.7 7.4 10.2 7.6 10.6C7.6 10.6 6.6 14.7 6.4 15.4C6.2 16.6 6.3 17.8 6.5 18.9C6.4 19 6.5 19 6.5 19H6.6C7.3 18 7.9 17 8.3 15.9C8.4 15.4 8.9 13.6 8.9 13.6C9.4 14.3 10.3 14.7 11.2 14.7C14.3 14.7 16.5 12 16.5 8.7C16.5 5.4 13.7 3 10.2 3Z" fill="currentColor"/>
	</symbol>
	<symbol id="">
	</symbol>
	<symbol id="">
	</symbol>
</svg>
